<svg width="41" height="6" viewBox="0 0 41 6" fill="none" xmlns="http://www.w3.org/2000/svg">
    <path d="M0.117188 2.49219C0.117188 2.44531 0.117188 2.36914 0.117188 2.26367C0.121094 2.1543 0.123047 2.04102 0.123047 1.92383C0.123047 1.80273 0.123047 1.68945 0.123047 1.58398C0.126953 1.47852 0.128906 1.4043 0.128906 1.36133C0.132812 1.33398 0.142578 1.29297 0.158203 1.23828C0.173828 1.17969 0.191406 1.12305 0.210938 1.06836C0.234375 1.01367 0.263672 0.966797 0.298828 0.927734C0.337891 0.884766 0.384766 0.863281 0.439453 0.863281C0.568359 0.863281 0.689453 0.898438 0.802734 0.96875C0.916016 1.03906 1.02539 1.13281 1.13086 1.25C1.23633 1.36328 1.33594 1.49023 1.42969 1.63086C1.52734 1.77148 1.62305 1.91211 1.7168 2.05273C1.81055 2.18945 1.90234 2.32031 1.99219 2.44531C2.08203 2.56641 2.17188 2.66406 2.26172 2.73828C2.35938 2.69531 2.43555 2.61719 2.49023 2.50391C2.54492 2.38672 2.58984 2.25391 2.625 2.10547C2.66016 1.95312 2.69141 1.79688 2.71875 1.63672C2.75 1.47266 2.79102 1.32227 2.8418 1.18555C2.89258 1.04883 2.95898 0.9375 3.04102 0.851562C3.12695 0.761719 3.24414 0.716797 3.39258 0.716797C3.56836 0.716797 3.72656 0.785156 3.86719 0.921875C4.01172 1.05859 4.14062 1.23242 4.25391 1.44336C4.36719 1.6543 4.46289 1.88867 4.54102 2.14648C4.62305 2.4043 4.69141 2.65234 4.74609 2.89062C4.80078 3.12891 4.8418 3.34375 4.86914 3.53516C4.89648 3.72656 4.91016 3.86328 4.91016 3.94531C4.91016 3.98047 4.9082 4.01953 4.9043 4.0625C4.90039 4.10156 4.89062 4.13867 4.875 4.17383C4.85938 4.20508 4.83398 4.23047 4.79883 4.25C4.76367 4.26562 4.71289 4.26367 4.64648 4.24414C4.62695 4.24023 4.60352 4.23047 4.57617 4.21484C4.55273 4.19531 4.52734 4.17188 4.5 4.14453C4.47266 4.11719 4.44922 4.0918 4.42969 4.06836C4.41016 4.04102 4.40039 4.01758 4.40039 3.99805C4.36523 3.80664 4.32617 3.59375 4.2832 3.35938C4.24023 3.125 4.18555 2.88867 4.11914 2.65039C4.05664 2.4082 3.97656 2.17383 3.87891 1.94727C3.78125 1.7207 3.66016 1.52539 3.51562 1.36133C3.40234 1.42383 3.3125 1.51953 3.24609 1.64844C3.18359 1.77344 3.13086 1.91211 3.08789 2.06445C3.04492 2.21289 3.00586 2.36523 2.9707 2.52148C2.93555 2.67773 2.88867 2.82031 2.83008 2.94922C2.77148 3.07422 2.69727 3.17773 2.60742 3.25977C2.51758 3.3418 2.39648 3.38281 2.24414 3.38281C2.13867 3.38281 2.03516 3.34961 1.93359 3.2832C1.83594 3.21289 1.74023 3.12305 1.64648 3.01367C1.55273 2.90039 1.46094 2.77734 1.37109 2.64453C1.28516 2.50781 1.19922 2.375 1.11328 2.24609C1.03125 2.11328 0.949219 1.99023 0.867188 1.87695C0.789062 1.76367 0.708984 1.67383 0.626953 1.60742C0.595703 1.72852 0.570312 1.83594 0.550781 1.92969C0.535156 2.01953 0.521484 2.10742 0.509766 2.19336C0.501953 2.2793 0.496094 2.36719 0.492188 2.45703C0.492188 2.54688 0.492188 2.64648 0.492188 2.75586C0.492188 2.91992 0.505859 3.08398 0.533203 3.24805C0.560547 3.4082 0.589844 3.56836 0.621094 3.72852C0.652344 3.88867 0.681641 4.05078 0.708984 4.21484C0.740234 4.375 0.755859 4.53711 0.755859 4.70117V4.74805C0.748047 4.75977 0.732422 4.7793 0.708984 4.80664C0.685547 4.83008 0.660156 4.85547 0.632812 4.88281C0.609375 4.91016 0.583984 4.93555 0.556641 4.95898C0.529297 4.97852 0.509766 4.99219 0.498047 5C0.494141 5.00391 0.486328 5.00586 0.474609 5.00586C0.462891 5.00977 0.451172 5.01172 0.439453 5.01172C0.431641 5.01172 0.421875 5.00977 0.410156 5.00586C0.398438 5.00195 0.388672 5 0.380859 5C0.353516 4.77344 0.324219 4.55859 0.292969 4.35547C0.261719 4.15234 0.232422 3.95117 0.205078 3.75195C0.181641 3.55273 0.160156 3.35156 0.140625 3.14844C0.125 2.94531 0.117188 2.72656 0.117188 2.49219ZM5.26172 2.60938C5.26172 2.58594 5.26172 2.54492 5.26172 2.48633C5.26562 2.42383 5.26758 2.35938 5.26758 2.29297C5.26758 2.22656 5.26758 2.16602 5.26758 2.11133C5.27148 2.05273 5.27344 2.01172 5.27344 1.98828C5.30078 1.94141 5.33203 1.89648 5.36719 1.85352C5.40625 1.80664 5.44531 1.77539 5.48438 1.75977C5.52734 1.74023 5.57227 1.73633 5.61914 1.74805C5.66992 1.75977 5.7207 1.79883 5.77148 1.86523V1.91211V1.98828C5.76758 2.00781 5.75977 2.05469 5.74805 2.12891C5.73633 2.19922 5.72266 2.27734 5.70703 2.36328C5.69141 2.44922 5.67578 2.5293 5.66016 2.60352C5.64844 2.67383 5.64258 2.71875 5.64258 2.73828C5.64258 2.8125 5.65039 2.90625 5.66602 3.01953C5.68164 3.12891 5.70312 3.24414 5.73047 3.36523C5.76172 3.48633 5.79883 3.60742 5.8418 3.72852C5.88867 3.84961 5.94336 3.95898 6.00586 4.05664C6.06836 4.15039 6.13672 4.22852 6.21094 4.29102C6.28906 4.35352 6.37891 4.38477 6.48047 4.38477C6.60547 4.38477 6.71484 4.35156 6.80859 4.28516C6.90625 4.21875 6.99023 4.13281 7.06055 4.02734C7.13086 3.92188 7.1875 3.80273 7.23047 3.66992C7.27734 3.53711 7.31445 3.4043 7.3418 3.27148C7.36914 3.13477 7.38867 3.00391 7.40039 2.87891C7.41211 2.75391 7.41797 2.64453 7.41797 2.55078C7.41797 2.45703 7.41016 2.36914 7.39453 2.28711C7.38281 2.20117 7.36719 2.11719 7.34766 2.03516C7.32812 1.95312 7.31055 1.87305 7.29492 1.79492C7.2832 1.71289 7.27734 1.63086 7.27734 1.54883C7.27734 1.47461 7.30273 1.42188 7.35352 1.39062C7.4082 1.35938 7.46875 1.34375 7.53516 1.34375C7.61719 1.34375 7.68359 1.36914 7.73438 1.41992C7.78516 1.4668 7.82422 1.52734 7.85156 1.60156C7.88281 1.67578 7.90234 1.76172 7.91016 1.85938C7.92188 1.95312 7.92773 2.04688 7.92773 2.14062C7.92773 2.23438 7.92578 2.32422 7.92188 2.41016C7.91797 2.49219 7.91602 2.55859 7.91602 2.60938C7.91602 2.74219 7.90625 2.89258 7.88672 3.06055C7.86719 3.22852 7.83203 3.40234 7.78125 3.58203C7.73438 3.75781 7.67383 3.93164 7.59961 4.10352C7.5293 4.27539 7.44141 4.42969 7.33594 4.56641C7.23438 4.69922 7.11523 4.80664 6.97852 4.88867C6.8457 4.9707 6.69531 5.01172 6.52734 5.01172C6.35156 5.01172 6.19727 4.9707 6.06445 4.88867C5.93164 4.80273 5.81836 4.69141 5.72461 4.55469C5.63477 4.41406 5.55859 4.25586 5.49609 4.08008C5.43359 3.9043 5.38477 3.72852 5.34961 3.55273C5.31836 3.37695 5.29492 3.20703 5.2793 3.04297C5.26758 2.875 5.26172 2.73047 5.26172 2.60938ZM9.39844 4.73633C9.46094 4.69336 9.53516 4.63867 9.62109 4.57227C9.71094 4.50195 9.80078 4.42773 9.89062 4.34961C9.98047 4.27148 10.0645 4.18945 10.1426 4.10352C10.2207 4.01758 10.2812 3.93555 10.3242 3.85742C10.3711 3.77539 10.3945 3.69922 10.3945 3.62891C10.3945 3.55859 10.3594 3.5 10.2891 3.45312C10.1641 3.45312 10.0273 3.45898 9.87891 3.4707C9.73047 3.47852 9.58203 3.48242 9.43359 3.48242C9.28516 3.47852 9.14062 3.46484 9 3.44141C8.86328 3.41797 8.74023 3.375 8.63086 3.3125C8.52148 3.25 8.43359 3.16211 8.36719 3.04883C8.30469 2.93164 8.27344 2.7832 8.27344 2.60352C8.27344 2.39258 8.3125 2.20312 8.39062 2.03516C8.47266 1.86328 8.58008 1.71289 8.71289 1.58398C8.8457 1.45117 8.99414 1.33594 9.1582 1.23828C9.32617 1.13672 9.49414 1.05078 9.66211 0.980469C9.76367 1.00781 9.85742 1.05664 9.94336 1.12695C10.0293 1.19727 10.1035 1.27539 10.166 1.36133C10.1387 1.44727 10.084 1.51367 10.002 1.56055C9.92383 1.60742 9.83203 1.64844 9.72656 1.68359C9.625 1.71875 9.51758 1.75586 9.4043 1.79492C9.29102 1.83398 9.1875 1.88672 9.09375 1.95312C9.00391 2.01562 8.92773 2.09961 8.86523 2.20508C8.80273 2.30664 8.77148 2.44141 8.77148 2.60938C8.77148 2.73438 8.80273 2.82617 8.86523 2.88477C8.92773 2.94336 9.00977 2.98438 9.11133 3.00781C9.21289 3.02734 9.32812 3.03516 9.45703 3.03125C9.58594 3.02344 9.7168 3.01367 9.84961 3.00195C9.98633 2.99023 10.1191 2.98438 10.248 2.98438C10.377 2.98047 10.4922 2.99609 10.5938 3.03125C10.6953 3.0625 10.7754 3.11523 10.834 3.18945C10.8965 3.26367 10.9277 3.37305 10.9277 3.51758C10.9277 3.58008 10.9062 3.66016 10.8633 3.75781C10.8242 3.85547 10.7695 3.96094 10.6992 4.07422C10.6328 4.18359 10.5527 4.29297 10.459 4.40234C10.3691 4.51172 10.2734 4.61133 10.1719 4.70117C10.0742 4.78711 9.97461 4.85938 9.87305 4.91797C9.77539 4.97266 9.68359 5 9.59766 5C9.51562 5 9.46094 4.9707 9.43359 4.91211C9.41016 4.85352 9.39844 4.79492 9.39844 4.73633ZM11.4082 2.80273C11.4082 2.7793 11.4082 2.74219 11.4082 2.69141C11.4121 2.63672 11.4141 2.58008 11.4141 2.52148C11.418 2.46289 11.4199 2.40625 11.4199 2.35156C11.4238 2.29688 11.4258 2.25781 11.4258 2.23438C11.4688 2.17188 11.5234 2.12109 11.5898 2.08203C11.6602 2.04297 11.7305 2.01172 11.8008 1.98828C11.8125 2.19922 11.8457 2.42383 11.9004 2.66211C11.9551 2.90039 12.0137 3.14062 12.0762 3.38281C12.1387 3.62109 12.1934 3.85742 12.2402 4.0918C12.291 4.32617 12.3164 4.54492 12.3164 4.74805C12.3164 4.92383 12.2266 5.01172 12.0469 5.01172C11.9375 5.01172 11.8457 4.9668 11.7715 4.87695C11.6973 4.78711 11.6367 4.67383 11.5898 4.53711C11.5469 4.39648 11.5117 4.24219 11.4844 4.07422C11.457 3.90234 11.4375 3.73438 11.4258 3.57031C11.418 3.40625 11.4121 3.25586 11.4082 3.11914C11.4082 2.98242 11.4082 2.87695 11.4082 2.80273ZM11.4902 0.605469C11.5645 0.636719 11.627 0.6875 11.6777 0.757812C11.7285 0.828125 11.75 0.892578 11.7422 0.951172C11.7383 1.00586 11.6953 1.04492 11.6133 1.06836C11.5312 1.08789 11.3945 1.06445 11.2031 0.998047C11.2031 0.892578 11.2227 0.800781 11.2617 0.722656C11.3047 0.644531 11.3809 0.605469 11.4902 0.605469ZM12.4277 3.23633C12.4277 3.07227 12.4629 2.90039 12.5332 2.7207C12.6074 2.54102 12.7051 2.37891 12.8262 2.23438C12.9473 2.08594 13.0859 1.96289 13.2422 1.86523C13.4023 1.76758 13.5703 1.71875 13.7461 1.71875C13.8359 1.71875 13.9258 1.73438 14.0156 1.76562C14.1055 1.79688 14.1855 1.8418 14.2559 1.90039C14.3301 1.95898 14.3887 2.0293 14.4316 2.11133C14.4785 2.19336 14.502 2.28516 14.502 2.38672C14.4316 2.38672 14.3672 2.37891 14.3086 2.36328C14.2539 2.34766 14.1992 2.33008 14.1445 2.31055C14.0898 2.28711 14.0352 2.26758 13.9805 2.25195C13.9297 2.23633 13.873 2.22852 13.8105 2.22852C13.6504 2.22852 13.5195 2.26953 13.418 2.35156C13.3203 2.42969 13.2422 2.5293 13.1836 2.65039C13.125 2.77148 13.084 2.90234 13.0605 3.04297C13.041 3.17969 13.0312 3.30859 13.0312 3.42969C13.0312 3.44922 13.0312 3.48633 13.0312 3.54102C13.0352 3.5957 13.0371 3.6543 13.0371 3.7168C13.041 3.77539 13.043 3.83203 13.043 3.88672C13.0469 3.94141 13.0508 3.97852 13.0547 3.99805C13.0977 4.0918 13.1387 4.16406 13.1777 4.21484C13.2207 4.26562 13.2656 4.30469 13.3125 4.33203C13.3594 4.35547 13.4102 4.37109 13.4648 4.37891C13.5195 4.38281 13.584 4.38477 13.6582 4.38477C13.7598 4.38477 13.8477 4.36914 13.9219 4.33789C14 4.30664 14.0723 4.26953 14.1387 4.22656C14.2051 4.18359 14.2676 4.13672 14.3262 4.08594C14.3848 4.03125 14.4453 3.98242 14.5078 3.93945C14.5742 3.89258 14.6445 3.85547 14.7188 3.82812C14.7969 3.79688 14.8848 3.78125 14.9824 3.78125C14.9824 3.97266 14.9473 4.14258 14.877 4.29102C14.8105 4.43945 14.7148 4.56641 14.5898 4.67188C14.4688 4.77734 14.3242 4.85938 14.1562 4.91797C13.9922 4.97266 13.8125 5 13.6172 5C13.4336 5 13.2676 4.9375 13.1191 4.8125C12.9746 4.6875 12.8496 4.53516 12.7441 4.35547C12.6426 4.17188 12.5645 3.97852 12.5098 3.77539C12.4551 3.57227 12.4277 3.39258 12.4277 3.23633ZM17.8301 4.24414C17.6816 4.3457 17.5527 4.4375 17.4434 4.51953C17.3379 4.59766 17.2344 4.66406 17.1328 4.71875C17.0312 4.77344 16.9219 4.81445 16.8047 4.8418C16.6914 4.86914 16.5508 4.88281 16.3828 4.88281C16.0195 4.88281 15.75 4.78711 15.5742 4.5957C15.3984 4.40039 15.3105 4.11133 15.3105 3.72852C15.3105 3.58008 15.3301 3.42578 15.3691 3.26562C15.4082 3.10547 15.4648 2.94727 15.5391 2.79102C15.6172 2.63086 15.709 2.48047 15.8145 2.33984C15.9199 2.19531 16.0391 2.06836 16.1719 1.95898C16.3047 1.84961 16.4453 1.76367 16.5938 1.70117C16.7461 1.63477 16.9062 1.60156 17.0742 1.60156C17.3555 1.62891 17.5762 1.69922 17.7363 1.8125C17.8965 1.92188 18.0176 2.06445 18.0996 2.24023C18.1816 2.41211 18.2383 2.60547 18.2695 2.82031C18.3008 3.03125 18.3242 3.25 18.3398 3.47656C18.3594 3.70312 18.3828 3.92969 18.4102 4.15625C18.4375 4.38281 18.4941 4.5918 18.5801 4.7832C18.5293 4.91211 18.4805 5.00195 18.4336 5.05273C18.3906 5.10742 18.3418 5.11719 18.2871 5.08203C18.2324 5.04688 18.168 4.96094 18.0938 4.82422C18.0234 4.6875 17.9355 4.49414 17.8301 4.24414ZM15.8086 3.74023C15.8086 3.96289 15.8496 4.12695 15.9316 4.23242C16.0176 4.33398 16.168 4.38477 16.3828 4.38477C16.543 4.38477 16.6953 4.35742 16.8398 4.30273C16.9883 4.24414 17.1172 4.16602 17.2266 4.06836C17.3359 3.9668 17.4238 3.8457 17.4902 3.70508C17.5566 3.56445 17.5898 3.4082 17.5898 3.23633C17.5898 3.16602 17.5918 3.06836 17.5957 2.94336C17.5996 2.81445 17.5918 2.6875 17.5723 2.5625C17.5527 2.4375 17.5156 2.33008 17.4609 2.24023C17.4062 2.14648 17.3242 2.09961 17.2148 2.09961C17.0117 2.09961 16.8242 2.15234 16.6523 2.25781C16.4805 2.35938 16.332 2.49023 16.207 2.65039C16.082 2.81055 15.9844 2.98828 15.9141 3.18359C15.8438 3.375 15.8086 3.56055 15.8086 3.74023ZM19.0898 1.68359C19.0898 1.57031 19.082 1.46094 19.0664 1.35547C19.0508 1.24609 19.0469 1.15039 19.0547 1.06836C19.0625 0.982422 19.0918 0.914062 19.1426 0.863281C19.1973 0.8125 19.2949 0.787109 19.4355 0.787109C19.4785 0.876953 19.5195 1.01367 19.5586 1.19727C19.6016 1.38086 19.6426 1.5918 19.6816 1.83008C19.7207 2.06836 19.7578 2.32812 19.793 2.60938C19.8281 2.88672 19.8594 3.16602 19.8867 3.44727C19.918 3.72852 19.9434 4.00586 19.9629 4.2793C19.9863 4.54883 20.0039 4.79492 20.0156 5.01758C19.8867 5.10352 19.7832 5.10938 19.7051 5.03516C19.627 4.96094 19.5625 4.83594 19.5117 4.66016C19.4609 4.48047 19.4219 4.26367 19.3945 4.00977C19.3672 3.75195 19.3398 3.48633 19.3125 3.21289C19.2891 2.93555 19.2598 2.66406 19.2246 2.39844C19.1895 2.12891 19.1445 1.89062 19.0898 1.68359ZM23.0215 2.99023C23.0215 2.85742 23.0391 2.71289 23.0742 2.55664C23.1133 2.40039 23.166 2.24414 23.2324 2.08789C23.2988 1.92773 23.3789 1.77344 23.4727 1.625C23.5664 1.47266 23.6719 1.33984 23.7891 1.22656C23.9062 1.10938 24.0332 1.01758 24.1699 0.951172C24.3066 0.880859 24.4512 0.845703 24.6035 0.845703C24.7285 0.845703 24.8457 0.863281 24.9551 0.898438C25.0645 0.929688 25.1582 0.978516 25.2363 1.04492C25.3145 1.11133 25.375 1.19531 25.418 1.29688C25.4648 1.39453 25.4883 1.51172 25.4883 1.64844C25.4023 1.64844 25.332 1.62695 25.2773 1.58398C25.2266 1.53711 25.1777 1.48633 25.1309 1.43164C25.0879 1.37695 25.0391 1.32812 24.9844 1.28516C24.9336 1.24219 24.8672 1.2207 24.7852 1.2207C24.6641 1.2207 24.5469 1.25195 24.4336 1.31445C24.3242 1.37695 24.2207 1.46094 24.123 1.56641C24.0293 1.67188 23.9453 1.79102 23.8711 1.92383C23.8008 2.05664 23.7383 2.19141 23.6836 2.32812C23.6328 2.46094 23.5918 2.5918 23.5605 2.7207C23.5332 2.84961 23.5195 2.96094 23.5195 3.05469C23.5195 3.25781 23.5488 3.44922 23.6074 3.62891C23.6699 3.80469 23.7578 3.95898 23.8711 4.0918C23.9844 4.2207 24.125 4.32227 24.293 4.39648C24.4609 4.4707 24.6523 4.50781 24.8672 4.50781C25.0039 4.50781 25.1328 4.48828 25.2539 4.44922C25.3789 4.40625 25.498 4.36133 25.6113 4.31445C25.7285 4.26367 25.8438 4.2168 25.957 4.17383C26.0703 4.13086 26.1836 4.10938 26.2969 4.10938C26.3125 4.10938 26.334 4.11133 26.3613 4.11523C26.3926 4.11523 26.4199 4.11914 26.4434 4.12695C26.4707 4.13477 26.4941 4.14844 26.5137 4.16797C26.5332 4.18359 26.543 4.20898 26.543 4.24414C26.543 4.38477 26.4883 4.50391 26.3789 4.60156C26.2734 4.69922 26.1465 4.7793 25.998 4.8418C25.8496 4.90039 25.6953 4.94336 25.5352 4.9707C25.375 4.99805 25.2441 5.01172 25.1426 5.01172C24.8457 5.01172 24.5684 4.96484 24.3105 4.87109C24.0527 4.77344 23.8281 4.63672 23.6367 4.46094C23.4453 4.28516 23.2949 4.07422 23.1855 3.82812C23.0762 3.57812 23.0215 3.29883 23.0215 2.99023ZM26.959 1.19141C26.959 1.14844 26.9629 1.0957 26.9707 1.0332C26.9824 0.966797 27 0.904297 27.0234 0.845703C27.0508 0.787109 27.084 0.738281 27.123 0.699219C27.1621 0.65625 27.2129 0.634766 27.2754 0.634766C27.2793 0.634766 27.2891 0.636719 27.3047 0.640625C27.3203 0.644531 27.3301 0.646484 27.334 0.646484C27.4004 0.888672 27.4395 1.12891 27.4512 1.36719C27.4629 1.60547 27.459 1.83789 27.4395 2.06445C27.4199 2.28711 27.3906 2.50391 27.3516 2.71484C27.3125 2.92188 27.2793 3.11328 27.252 3.28906C27.2285 3.46484 27.2129 3.62305 27.2051 3.76367C27.2012 3.9043 27.2227 4.02344 27.2695 4.12109C27.2617 4.05859 27.2559 3.98438 27.252 3.89844C27.252 3.80859 27.2598 3.7168 27.2754 3.62305C27.2949 3.5293 27.3242 3.43555 27.3633 3.3418C27.4062 3.24805 27.4668 3.16406 27.5449 3.08984C27.623 3.01562 27.7227 2.95703 27.8438 2.91406C27.9688 2.87109 28.123 2.84961 28.3066 2.84961C28.498 2.84961 28.6621 2.88281 28.7988 2.94922C28.9395 3.01562 29.0547 3.10742 29.1445 3.22461C29.2344 3.33789 29.3008 3.47266 29.3438 3.62891C29.3906 3.78125 29.4141 3.94531 29.4141 4.12109C29.4141 4.20312 29.4121 4.29688 29.4082 4.40234C29.4082 4.50391 29.3945 4.59961 29.3672 4.68945C29.3438 4.77539 29.2988 4.84961 29.2324 4.91211C29.1699 4.9707 29.0762 5 28.9512 5C28.9512 4.9375 28.9551 4.85352 28.9629 4.74805C28.9707 4.63867 28.9746 4.52344 28.9746 4.40234C28.9785 4.28125 28.9746 4.1582 28.9629 4.0332C28.9551 3.9082 28.9297 3.79688 28.8867 3.69922C28.8438 3.59766 28.7832 3.51562 28.7051 3.45312C28.6309 3.38672 28.5273 3.35352 28.3945 3.35352C28.3477 3.35352 28.2891 3.35742 28.2188 3.36523C28.1523 3.36914 28.084 3.38672 28.0137 3.41797C27.9434 3.44922 27.875 3.49805 27.8086 3.56445C27.7422 3.62695 27.6895 3.71484 27.6504 3.82812C27.6113 3.9375 27.5879 4.07812 27.5801 4.25C27.5762 4.41797 27.5977 4.625 27.6445 4.87109C27.6172 4.94141 27.582 4.98242 27.5391 4.99414C27.5 5.00586 27.4492 5.01172 27.3867 5.01172C27.2617 5.01172 27.1582 4.96875 27.0762 4.88281C26.998 4.79297 26.9375 4.67383 26.8945 4.52539C26.8516 4.37695 26.8223 4.20508 26.8066 4.00977C26.7949 3.81445 26.791 3.61133 26.7949 3.40039C26.7988 3.18555 26.8086 2.96875 26.8242 2.75C26.8438 2.52734 26.8613 2.31836 26.877 2.12305C26.8965 1.92383 26.9141 1.74414 26.9297 1.58398C26.9492 1.41992 26.959 1.28906 26.959 1.19141ZM32.168 4.24414C32.0195 4.3457 31.8906 4.4375 31.7812 4.51953C31.6758 4.59766 31.5723 4.66406 31.4707 4.71875C31.3691 4.77344 31.2598 4.81445 31.1426 4.8418C31.0293 4.86914 30.8887 4.88281 30.7207 4.88281C30.3574 4.88281 30.0879 4.78711 29.9121 4.5957C29.7363 4.40039 29.6484 4.11133 29.6484 3.72852C29.6484 3.58008 29.668 3.42578 29.707 3.26562C29.7461 3.10547 29.8027 2.94727 29.877 2.79102C29.9551 2.63086 30.0469 2.48047 30.1523 2.33984C30.2578 2.19531 30.377 2.06836 30.5098 1.95898C30.6426 1.84961 30.7832 1.76367 30.9316 1.70117C31.084 1.63477 31.2441 1.60156 31.4121 1.60156C31.6934 1.62891 31.9141 1.69922 32.0742 1.8125C32.2344 1.92188 32.3555 2.06445 32.4375 2.24023C32.5195 2.41211 32.5762 2.60547 32.6074 2.82031C32.6387 3.03125 32.6621 3.25 32.6777 3.47656C32.6973 3.70312 32.7207 3.92969 32.748 4.15625C32.7754 4.38281 32.832 4.5918 32.918 4.7832C32.8672 4.91211 32.8184 5.00195 32.7715 5.05273C32.7285 5.10742 32.6797 5.11719 32.625 5.08203C32.5703 5.04688 32.5059 4.96094 32.4316 4.82422C32.3613 4.6875 32.2734 4.49414 32.168 4.24414ZM30.1465 3.74023C30.1465 3.96289 30.1875 4.12695 30.2695 4.23242C30.3555 4.33398 30.5059 4.38477 30.7207 4.38477C30.8809 4.38477 31.0332 4.35742 31.1777 4.30273C31.3262 4.24414 31.4551 4.16602 31.5645 4.06836C31.6738 3.9668 31.7617 3.8457 31.8281 3.70508C31.8945 3.56445 31.9277 3.4082 31.9277 3.23633C31.9277 3.16602 31.9297 3.06836 31.9336 2.94336C31.9375 2.81445 31.9297 2.6875 31.9102 2.5625C31.8906 2.4375 31.8535 2.33008 31.7988 2.24023C31.7441 2.14648 31.6621 2.09961 31.5527 2.09961C31.3496 2.09961 31.1621 2.15234 30.9902 2.25781C30.8184 2.35938 30.6699 2.49023 30.5449 2.65039C30.4199 2.81055 30.3223 2.98828 30.252 3.18359C30.1816 3.375 30.1465 3.56055 30.1465 3.74023ZM33.5332 2.80273C33.5332 2.7793 33.5332 2.74219 33.5332 2.69141C33.5371 2.63672 33.5391 2.58008 33.5391 2.52148C33.543 2.46289 33.5449 2.40625 33.5449 2.35156C33.5488 2.29688 33.5508 2.25781 33.5508 2.23438C33.5938 2.17188 33.6484 2.12109 33.7148 2.08203C33.7852 2.04297 33.8555 2.01172 33.9258 1.98828C33.9375 2.19922 33.9707 2.42383 34.0254 2.66211C34.0801 2.90039 34.1387 3.14062 34.2012 3.38281C34.2637 3.62109 34.3184 3.85742 34.3652 4.0918C34.416 4.32617 34.4414 4.54492 34.4414 4.74805C34.4414 4.92383 34.3516 5.01172 34.1719 5.01172C34.0625 5.01172 33.9707 4.9668 33.8965 4.87695C33.8223 4.78711 33.7617 4.67383 33.7148 4.53711C33.6719 4.39648 33.6367 4.24219 33.6094 4.07422C33.582 3.90234 33.5625 3.73438 33.5508 3.57031C33.543 3.40625 33.5371 3.25586 33.5332 3.11914C33.5332 2.98242 33.5332 2.87695 33.5332 2.80273ZM33.6152 0.605469C33.6895 0.636719 33.752 0.6875 33.8027 0.757812C33.8535 0.828125 33.875 0.892578 33.8672 0.951172C33.8633 1.00586 33.8203 1.04492 33.7383 1.06836C33.6562 1.08789 33.5195 1.06445 33.3281 0.998047C33.3281 0.892578 33.3477 0.800781 33.3867 0.722656C33.4297 0.644531 33.5059 0.605469 33.6152 0.605469ZM34.6699 2.53906C34.6699 2.50391 34.6719 2.46875 34.6758 2.43359C34.6797 2.39453 34.6875 2.36133 34.6992 2.33398C34.7109 2.30273 34.7285 2.27734 34.752 2.25781C34.7793 2.23828 34.8164 2.22852 34.8633 2.22852C34.9023 2.22852 34.9453 2.25977 34.9922 2.32227C35.043 2.38086 35.0938 2.45703 35.1445 2.55078C35.1953 2.64062 35.2441 2.74023 35.291 2.84961C35.3418 2.95898 35.3848 3.06055 35.4199 3.1543C35.459 3.24414 35.4902 3.32227 35.5137 3.38867C35.5371 3.45508 35.5508 3.49023 35.5547 3.49414C35.6055 3.35742 35.6621 3.20898 35.7246 3.04883C35.7871 2.88867 35.8633 2.74023 35.9531 2.60352C36.0469 2.46289 36.1562 2.3457 36.2812 2.25195C36.4102 2.1582 36.5664 2.11133 36.75 2.11133C36.8438 2.11133 36.9316 2.12695 37.0137 2.1582C37.0996 2.18555 37.1738 2.22852 37.2363 2.28711C37.3027 2.3418 37.3555 2.4082 37.3945 2.48633C37.4336 2.56445 37.4531 2.6543 37.4531 2.75586C37.4531 2.8418 37.418 2.90234 37.3477 2.9375C37.2812 2.97266 37.2051 2.99023 37.1191 2.99023H37.0605L36.8086 2.73828C36.8008 2.73828 36.7949 2.73633 36.791 2.73242C36.7832 2.73242 36.7754 2.73242 36.7676 2.73242C36.7637 2.72852 36.7578 2.72656 36.75 2.72656C36.6133 2.72656 36.5059 2.76562 36.4277 2.84375C36.3535 2.91797 36.2969 3.01172 36.2578 3.125C36.2188 3.23438 36.1934 3.35156 36.1816 3.47656C36.1738 3.59766 36.1699 3.70898 36.1699 3.81055C36.1699 3.88867 36.1777 3.96875 36.1934 4.05078C36.209 4.12891 36.2266 4.20703 36.2461 4.28516C36.2656 4.35938 36.2832 4.4375 36.2988 4.51953C36.3145 4.59766 36.3223 4.67969 36.3223 4.76562C36.3223 4.92969 36.2344 5.01172 36.0586 5.01172C35.9609 5.01172 35.8594 4.96094 35.7539 4.85938C35.6484 4.75391 35.543 4.62109 35.4375 4.46094C35.3359 4.30078 35.2383 4.125 35.1445 3.93359C35.0508 3.73828 34.9688 3.54883 34.8984 3.36523C34.8281 3.18164 34.7715 3.01562 34.7285 2.86719C34.6895 2.71875 34.6699 2.60938 34.6699 2.53906ZM38.7891 4.73633C38.8516 4.69336 38.9258 4.63867 39.0117 4.57227C39.1016 4.50195 39.1914 4.42773 39.2812 4.34961C39.3711 4.27148 39.4551 4.18945 39.5332 4.10352C39.6113 4.01758 39.6719 3.93555 39.7148 3.85742C39.7617 3.77539 39.7852 3.69922 39.7852 3.62891C39.7852 3.55859 39.75 3.5 39.6797 3.45312C39.5547 3.45312 39.418 3.45898 39.2695 3.4707C39.1211 3.47852 38.9727 3.48242 38.8242 3.48242C38.6758 3.47852 38.5312 3.46484 38.3906 3.44141C38.2539 3.41797 38.1309 3.375 38.0215 3.3125C37.9121 3.25 37.8242 3.16211 37.7578 3.04883C37.6953 2.93164 37.6641 2.7832 37.6641 2.60352C37.6641 2.39258 37.7031 2.20312 37.7812 2.03516C37.8633 1.86328 37.9707 1.71289 38.1035 1.58398C38.2363 1.45117 38.3848 1.33594 38.5488 1.23828C38.7168 1.13672 38.8848 1.05078 39.0527 0.980469C39.1543 1.00781 39.248 1.05664 39.334 1.12695C39.4199 1.19727 39.4941 1.27539 39.5566 1.36133C39.5293 1.44727 39.4746 1.51367 39.3926 1.56055C39.3145 1.60742 39.2227 1.64844 39.1172 1.68359C39.0156 1.71875 38.9082 1.75586 38.7949 1.79492C38.6816 1.83398 38.5781 1.88672 38.4844 1.95312C38.3945 2.01562 38.3184 2.09961 38.2559 2.20508C38.1934 2.30664 38.1621 2.44141 38.1621 2.60938C38.1621 2.73438 38.1934 2.82617 38.2559 2.88477C38.3184 2.94336 38.4004 2.98438 38.502 3.00781C38.6035 3.02734 38.7188 3.03516 38.8477 3.03125C38.9766 3.02344 39.1074 3.01367 39.2402 3.00195C39.377 2.99023 39.5098 2.98438 39.6387 2.98438C39.7676 2.98047 39.8828 2.99609 39.9844 3.03125C40.0859 3.0625 40.166 3.11523 40.2246 3.18945C40.2871 3.26367 40.3184 3.37305 40.3184 3.51758C40.3184 3.58008 40.2969 3.66016 40.2539 3.75781C40.2148 3.85547 40.1602 3.96094 40.0898 4.07422C40.0234 4.18359 39.9434 4.29297 39.8496 4.40234C39.7598 4.51172 39.6641 4.61133 39.5625 4.70117C39.4648 4.78711 39.3652 4.85938 39.2637 4.91797C39.166 4.97266 39.0742 5 38.9883 5C38.9062 5 38.8516 4.9707 38.8242 4.91211C38.8008 4.85352 38.7891 4.79492 38.7891 4.73633Z" fill="#0275B1"/>
    </svg>
